<svg xmlns="http://www.w3.org/2000/svg" viewBox="0 0 64 64" fill="#FFAE13"><path fill="#FFAE13" d="M35.38434,41.07749c-.50977-.21484-1.09521,.02832-1.30762,.53809-.68359,1.81732-3.46985,1.81702-4.15332-.00012-.2124-.50867-.79688-.75183-1.30762-.53796-.50977,.21191-.75098,.79785-.53906,1.30762,.66162,1.58887,2.20166,2.61523,3.92334,2.61523s3.26172-1.02637,3.92334-2.61523c.21191-.50977-.0293-1.0957-.53906-1.30762Z"/><path d="M48.00007,17.04783v-2.04749c.08771-7.04944-5.95044-13.07434-13.00006-12.99994l-5.99994-.00006c-7.0542-.07452-13.09033,5.95551-12.99994,13.00006l-.00006,2.04742C.09199,21.74656,4.49769,31.24332,20.00007,33.94388c-.00024,.45685,.00018,3.69373,0,4.05646,0,2.4325,.7323,4.69495,1.98108,6.58777-5.64197,3.45752-8.45245,9.8656-7.9809,16.41229-.00018,.55267,.44757,.99994,.99982,.99994H49.00007c.55225,0,1-.44727,1-1,.47009-6.54645-2.33771-12.95514-7.98108-16.41223,1.24878-1.89282,1.98108-4.15527,1.98108-6.58777-.00018-.34943,.00018-3.62262,0-4.05646,15.50641-2.70142,19.90466-12.19885,4-16.89606ZM20.00007,56.00034v4h-4c-.23584-4.73767,1.66254-9.35571,5.22247-12.3728l.70947,4.96613c-1.15295,.70264-1.93195,1.96021-1.93195,3.40668Zm22.77753-8.3728c3.55994,3.01697,5.45837,7.63531,5.22247,12.3728h-4v-4c0-1.44647-.77899-2.70404-1.93195-3.40668l.70947-4.96613ZM29.00007,4.00034h6c4.67841,0,8.85461,3.00299,10.37726,7.37714-7.9209-1.82812-18.83386-1.82806-26.75482,.00006,1.51837-4.37079,5.69653-7.3772,10.37756-7.3772Zm-11,11c0-.48816,.03827-.96832,.10046-1.44214,8.0462-2.06726,19.75311-2.06732,27.79926,.00006,.17291,.98724,.0777,4.24084,.10028,5.28754-8.19897-2.02399-19.80096-2.02399-28,0v-3.84546Zm0,5.90118c8.08765-2.09863,19.91241-2.09863,28,0v2.42596c-8.8891,3.56024-19.11115,3.56036-28,0v-2.42596Zm24,39.09882H22.00007v-4c0-1.10254,.89697-2,2-2h16c1.10303,0,2,.89746,2,2v4Zm-10-12c-5.0918,0-9.30664-3.8252-9.92236-8.75195,2.77838,1.34937,6.23346,.84375,8.6084-1.09576,.78613-.63666,1.8418-.63666,2.62793,.00006,2.37665,1.94983,5.82886,2.43945,8.6084,1.0957-.61572,4.92676-4.83057,8.75195-9.92236,8.75195Zm8.9502-1.72137l-.81921,5.73462c-.36987-.02466-15.90918-.02728-16.26196,0l-.81921-5.73462c.06061-.0379,.12476-.07129,.18604-.1084,4.46454,5.0553,13.06506,5.05389,17.52832,0,.06128,.03711,.12543,.0705,.18604,.1084Zm1.0498-9.41821c-2.17969,1.65363-5.3302,1.47711-7.43115-.2677-1.5127-1.2226-3.62451-1.2226-5.13818,.00006-2.10388,1.7392-5.25458,1.92035-7.43066,.26764v-2.57507c5.99268,.94592,14.00732,.94592,20,0v2.57507Zm-10-3.86041c-18.37891,.02722-34.07843-7.8642-16-13.86688v4.86688c0,.40381,.24268,.76758,.61523,.92285,4.8999,2.04199,10.07617,3.07715,15.38477,3.07715,5.30811,0,10.48438-1.03516,15.38477-3.07715,.37256-.15527,.61523-.51904,.61523-.92285v-4.86688c18.07483,6.00146,2.38519,13.89362-16,13.86688Z"/></svg>